<svg width="903" height="827" viewBox="0 0 903 827" fill="none" xmlns="http://www.w3.org/2000/svg">
<rect width="903" height="827" fill="#1E1E1E"/>
<g id="undraw_outer_space_re_u9vd 1" clip-path="url(#clip0_0_1)">
<g id="Frame 1" clip-path="url(#clip1_0_1)">
<path id="fire" d="M518.815 640.346L519.098 661.635C513.066 657.818 504.666 660.758 501.476 667.802C498.286 674.846 500.883 684.719 506.925 688.514C503.316 693.495 496.929 693.629 491.335 693.863C485.74 694.098 479.154 695.645 476.972 701.668C475.22 706.505 477.329 712.348 480.752 715.804C484.174 719.261 488.631 720.873 492.948 722.397C483.729 726.313 477.733 738.547 479.459 749.917C481.184 761.287 490.436 770.499 500.27 770.638C491.214 775.439 486.716 789.429 490.779 800.151C494.876 810.961 505.254 816.3 514.951 819.518C539.629 827.747 566.186 828.515 591.299 821.725C600.89 819.12 610.441 815.311 618.267 808.352C626.093 801.392 632.04 790.876 632.507 779.326C628.188 792.188 636.402 807.348 647.351 812.708C658.299 818.068 670.775 815.968 682.164 812.354C697.31 807.547 713.288 798.55 718.881 781.374C721.65 772.871 721.461 763.467 721.235 754.339L720.796 736.643C720.618 729.498 720.422 722.227 718.447 715.446C716.472 708.665 712.409 702.326 706.659 699.896C710.546 694.471 714.536 688.824 716.174 681.988C717.813 675.151 716.44 666.752 711.359 662.801C704.893 657.772 695.832 661.838 688.782 658.055C681.998 654.414 679.216 644.837 673.579 639.092C671.286 636.662 668.333 634.953 665.084 634.175C661.834 633.397 658.428 633.584 655.283 634.713C649.124 637.081 644.238 643.458 642.883 650.897C641.696 657.414 643.075 664.205 642.818 670.872C642.56 677.538 639.739 685.039 634.165 686.343C627.439 687.917 621.876 679.446 620.557 671.526C619.238 663.605 620.18 655.107 617.381 647.72C614.079 639.001 605.383 633.55 597.41 635.201C589.438 636.853 582.964 645.446 582.543 654.937C582.199 662.696 585.082 671.936 580.372 677.357C575.394 683.086 566.474 678.253 562.895 671.151C559.315 664.049 558.639 655.38 555.173 648.202C551.653 640.913 545.237 635.622 538.211 634.217C534.619 633.569 530.922 633.838 527.461 634.996C524 636.155 520.886 638.167 518.407 640.846" fill="#D53604"/>
<g id="rocket">
<path id="Vector" d="M669.378 645.627L649.546 646.197C646.534 646.355 643.553 645.523 641.058 643.827C638.902 642.228 637.912 640.063 638.343 637.888L642.223 618.271C642.955 614.57 647.485 611.768 652.996 611.609L663.948 611.294C669.458 611.136 674.142 613.673 675.085 617.326L680.086 636.688C680.641 638.835 679.776 641.053 677.716 642.774C675.323 644.61 672.394 645.612 669.378 645.627V645.627Z" fill="#3F3D56"/>
<path id="Vector_2" d="M653.346 345.003C641.289 345.359 632.113 366.236 632.343 374.378L632.767 389.119L676.425 387.865L676.001 373.124C675.763 364.981 665.404 344.666 653.346 345.003Z" fill="#3F3D56"/>
<path id="Vector_3" d="M479.695 479.335C479.055 479.06 478.491 478.634 478.05 478.094C477.61 477.554 477.306 476.915 477.165 476.233C477.023 475.55 477.049 474.844 477.239 474.173C477.429 473.503 477.778 472.888 478.256 472.381C478.646 471.966 479.114 471.633 479.633 471.4C480.152 471.168 480.712 471.04 481.281 471.026L706.742 464.547C707.31 464.531 707.876 464.626 708.408 464.829C708.939 465.031 709.426 465.336 709.839 465.726C710.253 466.117 710.585 466.585 710.818 467.103C711.051 467.622 711.179 468.182 711.195 468.75C711.227 469.898 710.802 471.011 710.014 471.846C709.226 472.681 708.139 473.169 706.991 473.203L706.991 473.203L481.53 479.682C480.9 479.702 480.274 479.583 479.695 479.335V479.335Z" fill="#3F3D56"/>
<path id="Vector_4" d="M687.228 401.797L622.781 403.649L629.034 621.239L693.481 619.387L687.228 401.797Z" fill="#E6E6E6"/>
<path id="Vector_5" d="M583.789 86.7794C571.732 87.1353 562.556 108.012 562.786 116.155L563.21 130.896L606.868 129.641L606.444 114.9C606.206 106.758 595.847 86.4424 583.789 86.7794Z" fill="#3F3D56"/>
<path id="Vector_6" d="M610.412 644.969L590.581 645.538C587.568 645.697 584.587 644.865 582.092 643.169C579.937 641.569 578.946 639.405 579.377 637.23L583.258 617.612C583.989 613.911 588.52 611.109 594.03 610.951L604.982 610.636C610.492 610.478 615.177 613.015 616.119 616.668L621.12 636.03C621.675 638.177 620.811 640.395 618.751 642.116C616.357 643.952 613.429 644.954 610.412 644.969V644.969Z" fill="#3F3D56"/>
<path id="Vector_7" d="M548.75 648.323L528.919 648.893C525.906 649.051 522.925 648.219 520.43 646.523C518.275 644.924 517.285 642.759 517.715 640.584L521.596 620.966C522.327 617.266 526.858 614.463 532.368 614.305L543.32 613.99C548.831 613.832 553.515 616.369 554.458 620.022L559.458 639.384C560.013 641.531 559.149 643.749 557.089 645.47C554.695 647.306 551.767 648.308 548.75 648.323V648.323Z" fill="#3F3D56"/>
<path id="Vector_8" d="M618.735 180.586L554.288 182.438L566.927 622.272L631.374 620.42L618.735 180.586Z" fill="#E6E6E6"/>
<path id="Vector_9" d="M593.185 393.527L592.863 377.673L597.02 377.565L597.343 393.369L601.37 623.711L597.212 623.83" fill="#3F3D56"/>
<path id="Vector_10" d="M665.905 411.743L665.582 395.889L669.74 395.781L670.063 411.585L674.09 641.927L669.932 642.047" fill="#3F3D56"/>
<path id="Vector_11" d="M631.469 220.827L544.146 223.336C542.613 214.135 544.534 171.186 552.385 161.575L554.526 150.11L614.821 148.378L617.988 159.545C626.655 166.904 631.168 209.962 631.469 220.827Z" fill="#E6E6E6"/>
<path id="Vector_12" d="M616.729 149.728L554.508 151.516C552.211 151.582 550.314 150.378 550.269 148.828C550.263 148.604 550.296 148.381 550.365 148.169L559.997 118.383C560.409 117.107 562.056 116.169 563.978 116.114L605.241 114.928C607.164 114.873 608.862 115.715 609.347 116.965L620.673 146.149C621.252 147.641 619.92 149.197 617.697 149.623C617.378 149.684 617.054 149.719 616.729 149.728V149.728Z" fill="#E6E6E6"/>
<path id="Vector_13" d="M560.915 391.541C560.353 391.301 559.822 390.995 559.333 390.628C558.633 390.138 558.054 389.494 557.641 388.745C557.227 387.996 556.991 387.163 556.949 386.309L554.597 304.434C554.5 301.045 557.815 298.19 561.987 298.07L617.689 296.469C621.862 296.348 625.334 299.009 625.432 302.399L627.785 384.274C627.793 385.129 627.604 385.974 627.235 386.745C626.865 387.516 626.324 388.193 625.653 388.722C624.166 389.936 622.313 390.611 620.394 390.638L564.693 392.238C563.398 392.283 562.109 392.045 560.915 391.541Z" fill="#3F3D56"/>
<path id="Vector_14" d="M562.821 404.601L498.374 406.453L504.627 624.044L569.074 622.192L562.821 404.601Z" fill="#E6E6E6"/>
<path id="Vector_15" d="M596.291 144.482L577.391 145.025C573.744 145.13 570.656 141.013 570.507 135.848C570.359 130.684 573.206 126.397 576.853 126.292L595.752 125.749C599.399 125.644 602.488 129.761 602.636 134.925C602.785 140.089 599.938 144.377 596.291 144.482Z" fill="#3F3D56"/>
<path id="Vector_16" d="M530.197 347.771C518.14 348.127 508.963 369.004 509.194 377.147L509.617 391.888L553.275 390.633L552.852 375.892C552.614 367.75 542.254 347.434 530.197 347.771Z" fill="#3F3D56"/>
<path id="Vector_17" d="M688.925 491.037C686.672 491.099 684.487 490.265 682.848 488.718C681.21 487.171 680.252 485.037 680.184 482.785L679.495 458.795C679.433 456.543 680.267 454.359 681.815 452.722C683.362 451.085 685.496 450.13 687.748 450.065C689.999 450 692.184 450.832 693.823 452.377C695.462 453.922 696.42 456.055 696.488 458.307L697.177 482.297C697.239 484.549 696.405 486.735 694.858 488.373C693.311 490.012 691.177 490.97 688.925 491.037V491.037Z" fill="#3F3D56"/>
<path id="Vector_18" d="M499.311 496.565C497.058 496.627 494.873 495.793 493.234 494.246C491.596 492.699 490.638 490.565 490.57 488.312L489.881 464.322C489.819 462.071 490.653 459.886 492.201 458.25C493.748 456.613 495.882 455.657 498.134 455.592C500.385 455.527 502.57 456.359 504.209 457.904C505.848 459.45 506.806 461.582 506.874 463.834L507.563 487.824C507.625 490.077 506.791 492.262 505.244 493.901C503.697 495.539 501.563 496.497 499.311 496.565Z" fill="#3F3D56"/>
<path id="Vector_19" d="M693.405 441.197L618.669 443.344C617.357 435.469 619.001 398.711 625.72 390.485L631.551 380.559L676.591 378.309L681.867 388.748C695.167 389.817 699.859 425.931 693.405 441.197Z" fill="#E6E6E6"/>
<path id="Vector_20" d="M665.35 426.751L646.45 427.295C642.803 427.399 639.676 421.928 639.479 415.101C639.283 408.273 642.091 402.631 645.738 402.527L664.638 401.983C668.285 401.879 671.412 407.35 671.609 414.177C671.805 421.005 668.997 426.647 665.35 426.751Z" fill="#3F3D56"/>
<path id="Vector_21" d="M515.565 406.949L515.243 391.095L519.401 390.987L519.723 406.791L523.75 637.133L519.592 637.252" fill="#3F3D56"/>
<path id="Vector_22" d="M570.255 443.965L495.519 446.113C488.371 437.416 487.681 400.329 502.571 393.254L508.402 383.327L553.442 381.078L558.718 391.517C566.135 397.814 569.998 434.666 570.255 443.965Z" fill="#E6E6E6"/>
<path id="Vector_23" d="M542.105 426.209L523.205 426.752C519.558 426.857 516.452 422.129 516.282 416.214C516.112 410.299 518.942 405.4 522.589 405.295L541.488 404.752C545.135 404.647 548.241 409.375 548.411 415.29C548.581 421.206 545.752 426.104 542.105 426.209Z" fill="#3F3D56"/>
<path id="Vector_24" d="M690.543 517.132L728.238 546.358L732.274 608.649L687.548 591.456L690.543 517.132Z" fill="#E6E6E6"/>
<path id="Vector_25" d="M624.322 401.35L637.62 434.751L641.772 588.454L626.799 593.19L624.322 401.35Z" fill="#CCCCCC"/>
<path id="Vector_26" d="M564.452 400.69L552.1 434.452L552.284 588.211L567.385 592.523L564.452 400.69Z" fill="#CCCCCC"/>
<path id="Vector_27" d="M505.625 533.245L466.697 560.808L459.961 622.866L505.391 607.63L505.625 533.245Z" fill="#E6E6E6"/>
</g>
<path id="moon" d="M113 259C169.885 259 216 212.885 216 156C216 99.1147 169.885 53 113 53C56.1147 53 10 99.1147 10 156C10 212.885 56.1147 259 113 259Z" fill="#E6E6E6"/>
</g>
</g>
<defs>
<clipPath id="clip0_0_1">
<rect width="902.419" height="826.207" fill="white"/>
</clipPath>
<clipPath id="clip1_0_1">
<rect width="935" height="838" fill="white" transform="translate(-19 15)"/>
</clipPath>
</defs>
</svg>
